<svg id="vector" xmlns="http://www.w3.org/2000/svg" width="128" height="128" viewBox="0 0 128.0 128.0"><path fill="#FCC21BFF" d="M64,9.6C1.7,9.6 0.2,79.5 0.2,93.3c0,13.8 28.6,25 63.8,25c35.2,0 63.8,-11.2 63.8,-25C127.8,79.5 126.3,9.6 64,9.6z" id="path_0"/><path fill="#2F2F2FFF" d="M41.9,68c-4.5,0 -8.2,-4.3 -8.2,-9.6c0,-5.4 3.6,-9.7 8,-9.8c4.5,0 8.2,4.3 8.2,9.6C50,63.6 46.4,68 41.9,68z" id="path_1"/><path fill="#2F2F2FFF" d="M86,68c4.5,0 8.1,-4.4 8.1,-9.7c0,-5.4 -3.7,-9.7 -8.1,-9.7c-4.5,0 -8.1,4.4 -8.1,9.7C77.9,63.7 81.5,68 86,68z" id="path_2"/><path fill="#ED6C30FF" d="M85.3,88.3c-1.6,-4 -9.7,-10.3 -20.6,-10.5l0,0c-0.1,0 -0.1,0 -0.2,0c-0.1,0 -0.1,0 -0.2,0l0,0C53.5,78 45.5,84.4 43.8,88.3c-1.7,4 -0.2,6.7 4.3,6.7c4.2,0 14.9,0 16.4,0v0c0,0 0,0 0.1,0s0.1,0 0.1,0v0c1.4,0 12.1,0 16.4,0C85.5,95 87,92.3 85.3,88.3z" id="path_3"/><path fill="#FFFFFFFF" d="M84.8,93.9c0,0 0,-0.7 -1.1,-1c-1.5,-0.4 -3.7,1.2 -7,1.1s-7.8,-0.9 -10.7,-0.9C62.7,93 62.6,95 62.6,95s15.8,0 18.1,0S84,94.6 84.8,93.9z" id="path_4"/><path fill="#FFFFFFFF" d="M69.1,95c4.2,0.8 6,2 6,7.1c0,2.2 -0.3,4.9 0,7.1c0.4,2.4 2.1,2.9 3.3,2.7c2.9,-0.5 1.9,-5.4 2.3,-10.8c0.3,-4.1 3.5,-4.3 4.1,-7.1L69.1,95z" id="path_5"/></svg>