<svg id="vector" xmlns="http://www.w3.org/2000/svg" width="128" height="128" viewBox="0 0 128.0 128.0"><path fill="#FCC21BFF" d="M64,9.62c-62.41,0 -63.88,69.96 -63.88,83.8c0,13.86 28.59,25.08 63.88,25.08c35.28,0 63.88,-11.22 63.88,-25.08C127.88,79.58 126.4,9.62 64,9.62z" id="path_0"/><path fill="#2F2F2FFF" d="M41.99,65.06c-4.49,0.04 -8.17,-4.27 -8.22,-9.62c-0.05,-5.37 3.55,-9.75 8.04,-9.79c4.48,-0.04 8.17,4.27 8.22,9.64C50.08,60.65 46.47,65.02 41.99,65.06z" id="path_1"/><path fill="#2F2F2FFF" d="M86.1,65.06c4.48,-0.01 8.11,-4.36 8.1,-9.71c-0.01,-5.37 -3.66,-9.7 -8.14,-9.69c-4.49,0.01 -8.13,4.36 -8.12,9.73C77.95,60.74 81.61,65.07 86.1,65.06z" id="path_2"/><path fill="#ED6C30FF" d="M73.34,92.15c0,5.5 -4.18,7.82 -9.34,7.82c-5.16,0 -9.34,-2.32 -9.34,-7.82s4.18,-12.1 9.34,-12.1C69.16,80.05 73.34,86.65 73.34,92.15z" id="path_3"/></svg>